REM DIRINDEX 1\2\4,1\2\5,1\2\6,1\3\7,1\3\8
REM DIRNAME cjc128,folder01,folder02,folder03,folder04,folder05,folder06,folder07
TITLE ""
FILE "043_Proficiency Test08.mp3" MP3
  TRACK 01 AUDIO
    TITLE "0:"
    INDEX 01 00:00:00
  TRACK 02 AUDIO
    TITLE "8:cjc128_4007"
    INDEX 01 00:00:25
  TRACK 03 AUDIO
    TITLE "0:"
    INDEX 01 00:02:43
  TRACK 04 AUDIO
    TITLE "8:cjc128_4008"
    INDEX 01 00:03:10
  TRACK 05 AUDIO
    TITLE "0:"
    INDEX 01 00:05:22
  TRACK 06 AUDIO
    TITLE "7:cjc128_4009"
    INDEX 01 00:06:02
  TRACK 07 AUDIO
    TITLE "0:"
    INDEX 01 00:08:70
  TRACK 08 AUDIO
    TITLE "8:cjc128_4010"
    INDEX 01 00:12:50
  TRACK 09 AUDIO
    TITLE "0:"
    INDEX 01 00:14:68
  TRACK 10 AUDIO
    TITLE "7:cjc128_4011"
    INDEX 01 00:15:44
  TRACK 11 AUDIO
    TITLE "0:"
    INDEX 01 00:17:43
  TRACK 12 AUDIO
    TITLE "8:cjc128_4012"
    INDEX 01 00:20:16
  TRACK 13 AUDIO
    TITLE "0:"
    INDEX 01 00:22:29
  TRACK 14 AUDIO
    TITLE "7:cjc128_4013"
    INDEX 01 00:23:12
  TRACK 15 AUDIO
    TITLE "0:"
    INDEX 01 00:26:11
  TRACK 16 AUDIO
    TITLE "8:cjc128_4014"
    INDEX 01 00:29:46
  TRACK 17 AUDIO
    TITLE "0:"
    INDEX 01 00:31:67
  TRACK 18 AUDIO
    TITLE "7:cjc128_4015"
    INDEX 01 00:32:62
  TRACK 19 AUDIO
    TITLE "0:"
    INDEX 01 00:35:29
  TRACK 20 AUDIO
    TITLE "8:cjc128_4016"
    INDEX 01 00:38:39
  TRACK 21 AUDIO
    TITLE "0:"
    INDEX 01 00:40:62
  TRACK 22 AUDIO
    TITLE "7:cjc128_4017"
    INDEX 01 00:41:47
  TRACK 23 AUDIO
    TITLE "0:"
    INDEX 01 00:44:71
